<svg width="847" height="232" viewBox="0 0 847 232" fill="none" xmlns="http://www.w3.org/2000/svg">
<g clip-path="url(#clip0_170_3177)">
<path d="M-77.043 327.135C57.5594 290.036 171.875 326.68 299.431 368.63C362.697 389.434 425.793 405.009 491.731 387.956C592.048 362.017 657.436 283.083 741.747 229.897C878.66 143.554 939.673 335.832 1059.12 360.312C1110.83 370.922 1140.08 337.935 1185.79 322C1243.67 301.821 1297.11 338.162 1343.61 369.217" stroke="url(#paint0_linear_170_3177)" stroke-miterlimit="10"/>
<path d="M-77.043 300.969C53.5626 258.773 153.842 306.198 273.783 353.207C338.546 378.577 404.048 399.154 473.054 378.179C575.36 347.087 642.036 262.392 726.612 203.485C870.401 103.348 917.605 317.32 1041.11 342.482C1093.67 353.188 1126.12 316.581 1171.13 298.714C1234.7 273.476 1293.06 316.43 1343.61 351.729" stroke="url(#paint1_linear_170_3177)" stroke-miterlimit="10"/>
<path d="M-77.043 275.276C-18.5309 252.975 38.5794 247.84 99.0993 265.84C154.978 282.457 202.959 316.013 255.693 339.754C317.975 367.796 381.961 392.39 450.115 370.051C558.369 334.562 623.529 238.196 711.875 174.268C854.926 70.7398 896.541 291.419 1013.98 321.186C1073.44 336.249 1107.9 292.575 1158.45 272.605C1226.78 245.605 1290.61 296.005 1343.61 334.183" stroke="url(#paint2_linear_170_3177)" stroke-miterlimit="10"/>
<path d="M-77.043 250.474C-24.384 226.62 28.0855 219.192 83.6994 237.836C138.48 256.196 182.975 294.849 233.436 321.602C292.138 352.733 352.544 383.977 420.092 364.044C533.346 330.659 604.436 222.432 692.327 152.403C842.197 32.9779 867.068 273.135 989.85 300.779C1052.85 314.971 1092.08 264.325 1146.18 244.582C1218.95 218.036 1288.76 276.034 1343.59 316.619" stroke="url(#paint3_linear_170_3177)" stroke-miterlimit="10"/>
<path d="M-77.043 226.923C44.6598 161.554 117.757 238.878 216.881 301.367C273.177 336.855 333.792 377.914 402.779 355.063C514.499 318.059 587.994 206.801 672.684 132.811C727.351 85.0641 779.688 73.9799 826.513 134.384C867.124 186.754 893.208 262.184 965.472 277.36C1028.4 290.567 1072.84 238.727 1126.82 217.601C1206.26 186.489 1284.91 254.51 1343.61 299.093" stroke="url(#paint4_linear_170_3177)" stroke-miterlimit="10"/>
<path d="M-77.043 205.02C40.8335 130.917 114.291 207.862 207.259 277.702C256.849 314.952 312.993 366.546 379.991 349.057C420.774 338.409 456.934 308.15 488.075 281.434C547.932 230.106 597.617 169.55 654.443 115.323C708.92 63.3315 762.621 42.8684 809.332 111.458C844.148 162.578 870.856 241.55 940.847 252.71C1007.39 263.321 1056.09 206.213 1114.45 186.47C1198.63 157.973 1283.49 234.558 1343.61 281.51" stroke="url(#paint5_linear_170_3177)" stroke-miterlimit="10"/>
<path d="M-77.043 185.163C-31.0895 152.1 19.6184 131.352 75.6111 151.493C125.467 169.436 164.222 211.121 202.542 245.851C245.73 284.996 300.283 354.495 366.58 340.834C403.896 333.141 436.723 304.569 464.605 280.24C526.148 226.525 580.095 164.302 635.425 104.447C687.213 48.4009 744.607 8.08101 792.909 86.0872C825.433 138.59 850.683 221.636 924.443 224.554C989.907 227.15 1039.1 174.855 1098.1 155.567C1188.61 125.99 1280.42 212.921 1343.63 263.984" stroke="url(#paint6_linear_170_3177)" stroke-miterlimit="10"/>
<path d="M-77.043 166.935C-29.8772 130.178 22.6681 105.773 82.2409 126.957C132.513 144.824 174.148 185.561 211.312 222.186C249.954 260.289 301.817 335.131 365.084 322.36C400.487 315.217 431.627 286.588 457.73 263.358C517.416 210.211 570.719 149.618 624.647 90.824C674.029 36.9947 732.03 -12.0789 781.014 65.5672C813.064 116.365 837.404 197.441 909.782 198.445C974.677 199.335 1028.79 152.213 1089.39 136.07C1183.7 110.927 1275.88 193.348 1343.61 246.003" stroke="url(#paint7_linear_170_3177)" stroke-miterlimit="10"/>
<path d="M-77.043 146.624C-25.0091 105.679 30.5101 83.6619 94.1176 112.083C146.72 135.597 192.787 180.085 233.493 219.476C270.014 254.832 315.266 314.497 372.85 295.91C407.988 284.56 438.541 254.245 464.757 229.878C517.302 181.051 566.135 128.169 615.706 76.3672C662.948 26.9715 720.267 -21.0788 771.05 47.7947C807.173 96.7925 830.168 175.159 902.281 178.74C966.513 181.923 1028.62 139.538 1090.55 128.169C1184.2 110.965 1271.29 175.538 1343.63 225.293" stroke="url(#paint8_linear_170_3177)" stroke-miterlimit="10"/>
<path d="M-77.043 124.058C-21.0881 81.3504 35.9275 62.5736 101.297 96.2998C151.379 122.125 197.598 163.714 238.797 201.666C277.193 237.041 324.339 297.994 382.359 271.013C412.647 256.935 437.575 230.125 461.366 207.445C511.411 159.698 558.748 109.07 607.618 60.1484C658.174 9.54005 715.455 -29.6999 767.906 37.5821C804.009 83.9083 830.017 156.837 898.474 159.868C961.456 162.672 1024.02 132.489 1085.49 122.447C1180.37 106.948 1264.6 155.34 1343.63 201.969" stroke="url(#paint9_linear_170_3177)" stroke-miterlimit="10"/>
<path d="M-77.043 99.6536C-12.5073 53.081 49.0544 42.5463 117.776 85.8788C167.158 117.009 212.809 159.186 257 197.213C293.9 228.969 335.402 278.819 387.038 249.944C414.693 234.483 437.708 206.914 459.737 184.613C506.638 137.112 552.307 88.4557 600.572 42.3189C650.579 -5.48516 707.822 -39.9882 761.049 20.4158C800.789 65.5105 828.312 137.435 896.598 143.952C956.777 149.693 1022.35 126.161 1081.55 116.99C1176.15 102.344 1259.38 135.786 1343.59 176.618" stroke="url(#paint10_linear_170_3177)" stroke-miterlimit="10"/>
<path d="M-77.043 73.8662C-7.12779 26.82 57.1616 21.78 127.228 71.0052C180.096 108.142 227.602 155.074 277.875 195.773C312.444 223.74 350.688 262.089 393.895 229.954C422.459 208.714 445.777 176.712 469.493 150.641C509.593 106.588 550.697 63.1231 594.813 23.0684C648.874 -26.0241 707.5 -49.2156 761.939 9.95686C801.793 53.2704 832.328 120.874 897.811 128.207C959.789 135.142 1026.81 118.866 1088.2 110.435C1178.48 98.043 1258.83 118.222 1343.61 149.618" stroke="url(#paint11_linear_170_3177)" stroke-miterlimit="10"/>
<path d="M-77.043 47.0936C2.66526 -2.75679 70.421 2.54849 143.594 60.982C199.113 105.319 246.431 156.912 304.299 198.748C344.001 227.434 372.623 243.634 408.859 203.655C470.44 135.71 520.314 58.2726 592.464 -0.312565C645.426 -43.304 703.692 -59.3335 756.465 -9.29361C801.054 32.9779 831.059 97.8725 895.424 113.106C954.845 127.146 1029.42 113.296 1089.16 105.148C1177.34 93.1167 1256.91 100.184 1343.63 121.557" stroke="url(#paint12_linear_170_3177)" stroke-miterlimit="10"/>
<path d="M-77.043 19.7905C12.2121 -32.2957 84.8928 -15.3757 160.15 51.2999C214.059 99.0661 258.895 154.373 320.077 193.613C364.989 222.432 388.629 227.529 419.353 181.639C468.034 108.938 517.037 34.6263 587.956 -18.9947C645.294 -62.3651 703.389 -72.104 759.42 -22.102C806.074 19.5442 839.279 86.5419 905.255 101.283C963.767 114.357 1032.05 108.142 1091.04 100.108C1176.68 88.4367 1257.12 83.1693 1343.63 92.8135" stroke="url(#paint13_linear_170_3177)" stroke-miterlimit="10"/>
<path d="M-77.043 -7.6073C20.2435 -61.323 96.3527 -34.8535 173.466 38.6431C228.038 90.6535 273.025 154.184 340.213 191.055C390.087 218.434 407.59 204.205 431.381 157.272C469.227 82.6389 517.094 7.20952 587.199 -41.4093C646.544 -82.5819 706.571 -83.8513 762.318 -36.5398C810.942 4.74638 846.364 70.0009 911.506 88.3041C1051.22 127.563 1203.27 68.8831 1343.63 64.0136" stroke="url(#paint14_linear_170_3177)" stroke-miterlimit="10"/>
<path d="M-77.043 -34.683C-28.646 -60.4703 16.8529 -75.7798 71.0082 -57.003C115.806 -41.4662 152.497 -8.85781 185.361 24.3569C239.574 79.1904 285.925 152.971 358.151 185.561C412.325 210.003 425.149 177.072 443.428 131.125C473.224 56.1694 518.212 -20.6241 588.506 -64.5061C741.709 -160.171 797.001 33.3947 918.893 75.3631C1061.24 124.38 1204.43 62.5357 1343.63 35.5737" stroke="url(#paint15_linear_170_3177)" stroke-miterlimit="10"/>
<path d="M-77.043 -61.0009C-26.5624 -87.7166 19.9594 -102.609 75.0997 -82.3166C121.356 -65.3019 158.748 -30.5336 192.256 4.6895C244.953 60.0725 299.45 155.946 378.059 178.001C433.086 193.443 441.761 141.944 455.703 100.487C480.1 27.919 522.151 -52.0956 592.502 -90.4829C738.546 -170.175 812.098 9.00949 922.359 59.6557C1067.02 126.104 1207.1 57.9694 1343.61 7.98635" stroke="url(#paint16_linear_170_3177)" stroke-miterlimit="10"/>
<path d="M-77.043 -86.1061C-26.0699 -113.845 19.8457 -128.908 75.9521 -109.26C122.474 -92.965 160.491 -56.6051 193.563 -21.1736C247.226 36.3315 304.753 145.563 388.193 161.858C444.906 172.942 452.861 116.27 465.25 73.7146C486.521 0.710552 524.822 -80.0998 598.336 -114.053C744.588 -181.601 823.463 -9.57786 931.338 46.0515C987.501 75.003 1060.22 89.8388 1122.79 79.7588C1202.1 66.9883 1274.63 19.98 1343.63 -18.161" stroke="url(#paint17_linear_170_3177)" stroke-miterlimit="10"/>
<path d="M-77.043 -109.601C-22.755 -140.996 29.7145 -159.091 89.8177 -131.959C134.919 -111.59 170.7 -74.1503 203.034 -37.8093C251.488 16.6453 312.557 131.371 394.065 139.973C455.419 146.453 463.166 79.4367 476.312 34.1905C496.636 -35.7441 533.233 -110.719 606.898 -137.7C752.051 -190.885 835.984 -31.4051 940.714 30.9127C993.638 62.4031 1062.81 83.9652 1124.72 76.2536C1207.65 65.9084 1279.42 5.88322 1343.59 -42.5272" stroke="url(#paint18_linear_170_3177)" stroke-miterlimit="10"/>
<path d="M-77.043 -131.03C-25.7857 -163.695 24.6759 -186.432 85.2337 -161.971C133.763 -142.361 172.405 -100.733 205.743 -61.8346C253.401 -6.22415 313.334 107.952 398.005 109.961C458.374 111.382 469.549 43.3989 483.794 -1.9989C505.823 -72.1419 540.658 -140.182 617.923 -160.02C765.879 -198.028 848.031 -52.2093 953.898 17.7442C1005.72 52.001 1074.84 80.2514 1137.98 71.1378C1220.55 59.2009 1286.88 -9.44521 1343.61 -64.5061" stroke="url(#paint19_linear_170_3177)" stroke-miterlimit="10"/>
<path d="M-77.043 -149.959C-29.9909 -184.083 18.8797 -212.674 78.7177 -192.628C125.353 -177.015 162.082 -138.78 193.469 -102.514C244.877 -43.1336 296.589 62.4977 385.087 69.243C452.369 74.3588 469.852 8.95262 489.211 -42.7925C515.616 -113.39 552.421 -173.169 633.285 -184.102C776.638 -203.485 859.245 -80.1945 958.842 -2.5863C1008.77 36.3126 1076.38 73.563 1141.71 67.1967C1228.37 58.7462 1292.15 -21.8557 1343.61 -83.6429" stroke="url(#paint20_linear_170_3177)" stroke-miterlimit="10"/>
<path d="M-77.043 -164.889C-30.2182 -197.573 18.0652 -224.478 76.7098 -205.379C122.379 -190.506 158.729 -153.956 189.737 -118.79C239.687 -62.1756 292.555 46.5063 378.514 49.481C444.982 51.7736 467.731 -7.11469 491.56 -58.8788C522.114 -125.213 563.464 -185.94 641.884 -196.531C780.218 -215.213 866.632 -100.032 964.809 -26.3652C1012.98 9.76739 1080.92 46.5252 1142.79 45.3126C1229.28 43.6073 1293.34 -38.6809 1343.61 -98.7439" stroke="url(#paint21_linear_170_3177)" stroke-miterlimit="10"/>
<path d="M-77.043 -175.102C-30.9569 -206.649 16.6255 -232.815 74.1147 -215.422C118.534 -201.988 154.353 -167.769 184.869 -134.27C234.024 -80.2893 286.664 27.2558 369.838 27.7673C435.056 28.1652 462.825 -23.7504 491.295 -74.3209C526.072 -136.089 571.723 -195.356 647.359 -205.74C780.692 -224.024 870.761 -120.723 968.995 -51.963C1016.69 -18.5778 1083.9 18.6726 1142.92 23.94C1228.97 31.6136 1294.08 -51.4893 1343.59 -109.392" stroke="url(#paint22_linear_170_3177)" stroke-miterlimit="10"/>
<path d="M-77.043 -181.43C-32.8322 -211.651 14.4283 -237.779 69.6444 -223.758C116.715 -211.822 154.107 -176.22 186.157 -141.754C234.876 -89.365 283.728 7.94842 365.122 4.32948C426.702 1.60107 458.089 -45.1609 490.253 -91.184C529.747 -147.723 577.424 -200.737 649.745 -211.007C781.071 -229.67 873.072 -140.371 975.246 -76.6703C1022.45 -47.2262 1082.34 -12.3063 1136.73 1.77161C1224.88 24.5842 1292.01 -58.0451 1343.61 -116.403" stroke="url(#paint23_linear_170_3177)" stroke-miterlimit="10"/>
</g>
<defs>
<linearGradient id="paint0_linear_170_3177" x1="633.285" y1="207.75" x2="633.285" y2="395.234" gradientUnits="userSpaceOnUse">
<stop stop-color="#333333"/>
<stop offset="1" stop-color="#333333" stop-opacity="0"/>
</linearGradient>
<linearGradient id="paint1_linear_170_3177" x1="633.285" y1="176.972" x2="633.285" y2="386.84" gradientUnits="userSpaceOnUse">
<stop stop-color="#333333"/>
<stop offset="1" stop-color="#333333" stop-opacity="0"/>
</linearGradient>
<linearGradient id="paint2_linear_170_3177" x1="633.285" y1="146.832" x2="633.285" y2="378.738" gradientUnits="userSpaceOnUse">
<stop stop-color="#333333"/>
<stop offset="1" stop-color="#333333" stop-opacity="0"/>
</linearGradient>
<linearGradient id="paint3_linear_170_3177" x1="633.275" y1="119.314" x2="633.275" y2="370.315" gradientUnits="userSpaceOnUse">
<stop stop-color="#333333"/>
<stop offset="1" stop-color="#333333" stop-opacity="0"/>
</linearGradient>
<linearGradient id="paint4_linear_170_3177" x1="633.285" y1="92.9628" x2="633.285" y2="361.661" gradientUnits="userSpaceOnUse">
<stop stop-color="#333333"/>
<stop offset="1" stop-color="#333333" stop-opacity="0"/>
</linearGradient>
<linearGradient id="paint5_linear_170_3177" x1="633.285" y1="67.7195" x2="633.285" y2="352.57" gradientUnits="userSpaceOnUse">
<stop stop-color="#333333"/>
<stop offset="1" stop-color="#333333" stop-opacity="0"/>
</linearGradient>
<linearGradient id="paint6_linear_170_3177" x1="633.294" y1="42.7094" x2="633.294" y2="342.586" gradientUnits="userSpaceOnUse">
<stop stop-color="#333333"/>
<stop offset="1" stop-color="#333333" stop-opacity="0"/>
</linearGradient>
<linearGradient id="paint7_linear_170_3177" x1="633.285" y1="25.243" x2="633.285" y2="323.809" gradientUnits="userSpaceOnUse">
<stop stop-color="#333333"/>
<stop offset="1" stop-color="#333333" stop-opacity="0"/>
</linearGradient>
<linearGradient id="paint8_linear_170_3177" x1="633.294" y1="13.4778" x2="633.294" y2="299.417" gradientUnits="userSpaceOnUse">
<stop stop-color="#333333"/>
<stop offset="1" stop-color="#333333" stop-opacity="0"/>
</linearGradient>
<linearGradient id="paint9_linear_170_3177" x1="633.294" y1="1.80463" x2="633.294" y2="277.709" gradientUnits="userSpaceOnUse">
<stop stop-color="#333333"/>
<stop offset="1" stop-color="#333333" stop-opacity="0"/>
</linearGradient>
<linearGradient id="paint10_linear_170_3177" x1="633.275" y1="-11.809" x2="633.275" y2="258.617" gradientUnits="userSpaceOnUse">
<stop stop-color="#333333"/>
<stop offset="1" stop-color="#333333" stop-opacity="0"/>
</linearGradient>
<linearGradient id="paint11_linear_170_3177" x1="633.285" y1="-25.1967" x2="633.285" y2="242.16" gradientUnits="userSpaceOnUse">
<stop stop-color="#333333"/>
<stop offset="1" stop-color="#333333" stop-opacity="0"/>
</linearGradient>
<linearGradient id="paint12_linear_170_3177" x1="633.294" y1="-40.3088" x2="633.294" y2="227.541" gradientUnits="userSpaceOnUse">
<stop stop-color="#333333"/>
<stop offset="1" stop-color="#333333" stop-opacity="0"/>
</linearGradient>
<linearGradient id="paint13_linear_170_3177" x1="633.294" y1="-55.7277" x2="633.294" y2="215.702" gradientUnits="userSpaceOnUse">
<stop stop-color="#333333"/>
<stop offset="1" stop-color="#333333" stop-opacity="0"/>
</linearGradient>
<linearGradient id="paint14_linear_170_3177" x1="633.294" y1="-72.1698" x2="633.294" y2="204.902" gradientUnits="userSpaceOnUse">
<stop stop-color="#333333"/>
<stop offset="1" stop-color="#333333" stop-opacity="0"/>
</linearGradient>
<linearGradient id="paint15_linear_170_3177" x1="633.294" y1="-90.7454" x2="633.294" y2="193.863" gradientUnits="userSpaceOnUse">
<stop stop-color="#333333"/>
<stop offset="1" stop-color="#333333" stop-opacity="0"/>
</linearGradient>
<linearGradient id="paint16_linear_170_3177" x1="633.285" y1="-110.617" x2="633.285" y2="180.804" gradientUnits="userSpaceOnUse">
<stop stop-color="#333333"/>
<stop offset="1" stop-color="#333333" stop-opacity="0"/>
</linearGradient>
<linearGradient id="paint17_linear_170_3177" x1="633.294" y1="-129.535" x2="633.294" y2="163.266" gradientUnits="userSpaceOnUse">
<stop stop-color="#333333"/>
<stop offset="1" stop-color="#333333" stop-opacity="0"/>
</linearGradient>
<linearGradient id="paint18_linear_170_3177" x1="633.275" y1="-148.383" x2="633.275" y2="140.41" gradientUnits="userSpaceOnUse">
<stop stop-color="#333333"/>
<stop offset="1" stop-color="#333333" stop-opacity="0"/>
</linearGradient>
<linearGradient id="paint19_linear_170_3177" x1="633.285" y1="-172.254" x2="633.285" y2="109.983" gradientUnits="userSpaceOnUse">
<stop stop-color="#333333"/>
<stop offset="1" stop-color="#333333" stop-opacity="0"/>
</linearGradient>
<linearGradient id="paint20_linear_170_3177" x1="633.285" y1="-199.266" x2="633.285" y2="69.5255" gradientUnits="userSpaceOnUse">
<stop stop-color="#333333"/>
<stop offset="1" stop-color="#333333" stop-opacity="0"/>
</linearGradient>
<linearGradient id="paint21_linear_170_3177" x1="633.285" y1="-211.746" x2="633.285" y2="49.5459" gradientUnits="userSpaceOnUse">
<stop stop-color="#333333"/>
<stop offset="1" stop-color="#333333" stop-opacity="0"/>
</linearGradient>
<linearGradient id="paint22_linear_170_3177" x1="633.275" y1="-220.983" x2="633.275" y2="27.7696" gradientUnits="userSpaceOnUse">
<stop stop-color="#333333"/>
<stop offset="1" stop-color="#333333" stop-opacity="0"/>
</linearGradient>
<linearGradient id="paint23_linear_170_3177" x1="633.285" y1="-227.65" x2="633.285" y2="5.65645" gradientUnits="userSpaceOnUse">
<stop stop-color="#333333"/>
<stop offset="1" stop-color="#333333" stop-opacity="0"/>
</linearGradient>
<clipPath id="clip0_170_3177">
<rect width="1422" height="950" fill="white" transform="translate(-77.668 -457)"/>
</clipPath>
</defs>
</svg>
