<svg width="25" height="22" viewBox="0 0 25 22" fill="none" xmlns="http://www.w3.org/2000/svg">
<path fill-rule="evenodd" clip-rule="evenodd" d="M7.875 4.375C7.875 1.95875 9.83375 0 12.25 0C14.6662 0 16.625 1.95875 16.625 4.375C16.625 6.79125 14.6662 8.75 12.25 8.75C9.83375 8.75 7.875 6.79125 7.875 4.375Z" fill="#A685FA"/>
<path fill-rule="evenodd" clip-rule="evenodd" d="M16.625 7.875C16.625 5.942 18.192 4.375 20.125 4.375C22.058 4.375 23.625 5.942 23.625 7.875C23.625 9.808 22.058 11.375 20.125 11.375C18.192 11.375 16.625 9.808 16.625 7.875Z" fill="#A685FA"/>
<path fill-rule="evenodd" clip-rule="evenodd" d="M0.875 7.875C0.875 5.942 2.442 4.375 4.375 4.375C6.308 4.375 7.875 5.942 7.875 7.875C7.875 9.808 6.308 11.375 4.375 11.375C2.442 11.375 0.875 9.808 0.875 7.875Z" fill="#A685FA"/>
<path fill-rule="evenodd" clip-rule="evenodd" d="M5.61151 14.1371C7.00914 11.9518 9.45974 10.5 12.25 10.5C15.0406 10.5 17.4915 11.9522 18.889 14.1379C19.8552 15.649 20.2732 17.4711 20.0771 19.2476C20.0465 19.5252 19.8851 19.7715 19.6429 19.9105C17.4643 21.1606 14.9393 21.875 12.25 21.875C9.56074 21.875 7.03569 21.1606 4.85712 19.9105C4.61486 19.7715 4.45351 19.5252 4.42287 19.2476C4.22676 17.4707 4.64498 15.6483 5.61151 14.1371Z" fill="#A685FA"/>
<path d="M4.17933 13.1293C4.16528 13.1509 4.15132 13.1725 4.13744 13.1942C3.01107 14.9554 2.49559 17.0528 2.65383 19.1205C1.94445 19.0128 1.25615 18.8394 0.595499 18.6068L0.461382 18.5595C0.216718 18.4734 0.0457653 18.2512 0.0251895 17.9926L0.0139103 17.8509C0.00468667 17.735 0 17.6179 0 17.5C0 15.1493 1.85389 13.2316 4.17933 13.1293Z" fill="#A685FA"/>
<path d="M21.8466 19.1204C22.0048 17.0532 21.4896 14.9562 20.3636 13.1952C20.3495 13.1732 20.3354 13.1512 20.3211 13.1293C22.6463 13.2319 24.5 15.1495 24.5 17.5C24.5 17.6179 24.4953 17.735 24.4861 17.8509L24.4748 17.9926C24.4542 18.2512 24.2833 18.4734 24.0386 18.5595L23.9045 18.6068C23.244 18.8394 22.5558 19.0127 21.8466 19.1204Z" fill="#A685FA"/>
</svg>
