<svg width="27" height="23" viewBox="0 0 27 23" fill="none" xmlns="http://www.w3.org/2000/svg">
<path d="M12.6568 0.0731912C12.8802 -0.0243971 13.1341 -0.0243971 13.3575 0.0731912C17.6961 1.96882 21.8081 4.28612 25.6415 6.97317C25.919 7.16763 26.0592 7.50476 26.0015 7.8386C25.9439 8.17244 25.6987 8.443 25.3721 8.53314C24.573 8.75371 23.7809 8.99126 22.9959 9.24443C19.8096 10.272 16.7425 11.565 13.8204 13.0973L13.8166 13.0993C13.6841 13.1687 13.5519 13.2387 13.4201 13.3092C13.1624 13.4469 12.853 13.4469 12.5953 13.3092C12.4622 13.2381 12.3287 13.1674 12.195 13.0973C10.7501 12.3396 9.26976 11.6404 7.75708 11.0029V10.742C7.75708 10.5887 7.83574 10.4527 7.95743 10.379C9.71341 9.31519 11.5247 8.33361 13.3859 7.43961C13.8215 7.23037 14.005 6.70763 13.7958 6.27203C13.5866 5.83642 13.0638 5.65291 12.6282 5.86214C10.7158 6.78075 8.85475 7.78929 7.05066 8.88226C6.52171 9.20271 6.16612 9.72719 6.04916 10.3148C5.05175 9.93109 4.04123 9.57372 3.01842 9.24388C2.23346 8.99073 1.44126 8.75368 0.642215 8.53313C0.315642 8.44299 0.0704507 8.17243 0.0127933 7.83858C-0.0448643 7.50474 0.0953746 7.16761 0.372795 6.97316C4.20628 4.28611 8.31822 1.96881 12.6568 0.0731912Z" fill="#A685FA"/>
<path d="M14.2448 14.8527C17.0901 13.3324 20.0795 12.0471 23.1872 11.0227C23.3438 12.6733 23.4438 14.3403 23.4852 16.0218C23.4941 16.3825 23.2806 16.7117 22.9476 16.8508C19.6213 18.2395 16.4573 19.9401 13.4923 21.916C13.1985 22.1118 12.8157 22.1118 12.5219 21.916C9.55687 19.9401 6.39293 18.2395 3.06661 16.8508C2.7336 16.7117 2.5201 16.3825 2.52899 16.0218C2.57042 14.3402 2.67043 12.6731 2.82707 11.0223C3.90156 11.3765 4.96192 11.7619 6.00708 12.1773V13.6595C5.484 13.9621 5.13208 14.5276 5.13208 15.1754C5.13208 15.7532 5.41217 16.2657 5.844 16.5844C5.73957 17.0284 5.58501 17.463 5.38031 17.8791C5.90846 18.1284 6.43208 18.3856 6.95103 18.6508C7.24659 18.0497 7.46089 17.4187 7.59391 16.7745C8.20565 16.5018 8.63208 15.8884 8.63208 15.1754C8.63208 14.5276 8.28016 13.9621 7.75708 13.6595V12.9072C9.12371 13.5044 10.4624 14.1537 11.7706 14.8527C12.5436 15.2657 13.4718 15.2657 14.2448 14.8527Z" fill="#A685FA"/>
<path d="M4.21301 19.5064C4.702 19.0174 5.09127 18.4666 5.38031 17.8791C5.90846 18.1284 6.43208 18.3856 6.95103 18.6508C6.57938 19.4066 6.07899 20.1153 5.45044 20.7438C5.10874 21.0855 4.55472 21.0855 4.21301 20.7438C3.8713 20.4021 3.8713 19.8481 4.21301 19.5064Z" fill="#A685FA"/>
</svg>
