<svg width="11" height="20" viewBox="0 0 11 20" fill="none" xmlns="http://www.w3.org/2000/svg">
<path d="M7.65039 0.5C8.39782 0.49887 9.14513 0.531501 9.88965 0.595703V2.82031H8.50977C7.70841 2.82035 7.08733 3.00256 6.69336 3.46777C6.31553 3.91413 6.25002 4.50717 6.25 5.0498V7.82031H9.70117L9.37109 10.3799H6.25V19.5H3.57031V10.3799H0.5V7.82031H3.57031V4.7002C3.57031 3.2838 4.00099 2.24727 4.69141 1.56543C5.34015 0.924868 6.26681 0.549384 7.41699 0.504883L7.65039 0.5Z" fill="white"/>
<path d="M7.65039 0.5C8.39782 0.49887 9.14513 0.531501 9.88965 0.595703V2.82031H8.50977C7.70841 2.82035 7.08733 3.00256 6.69336 3.46777C6.31553 3.91413 6.25002 4.50717 6.25 5.0498V7.82031H9.70117L9.37109 10.3799H6.25V19.5H3.57031V10.3799H0.5V7.82031H3.57031V4.7002C3.57031 3.2838 4.00099 2.24727 4.69141 1.56543C5.34015 0.924868 6.26681 0.549384 7.41699 0.504883L7.65039 0.5Z" stroke="black"/>
<path d="M7.65039 0.5C8.39782 0.49887 9.14513 0.531501 9.88965 0.595703V2.82031H8.50977C7.70841 2.82035 7.08733 3.00256 6.69336 3.46777C6.31553 3.91413 6.25002 4.50717 6.25 5.0498V7.82031H9.70117L9.37109 10.3799H6.25V19.5H3.57031V10.3799H0.5V7.82031H3.57031V4.7002C3.57031 3.2838 4.00099 2.24727 4.69141 1.56543C5.34015 0.924868 6.26681 0.549384 7.41699 0.504883L7.65039 0.5Z" stroke="black" stroke-opacity="0.2"/>
</svg>
