<svg width="20" height="20" viewBox="0 0 20 20" fill="none" xmlns="http://www.w3.org/2000/svg">
<path d="M17.8565 2.14854C17.4398 1.72271 16.8232 1.56521 16.2482 1.73187L2.83984 5.60604C2.23318 5.77437 1.80318 6.25521 1.68734 6.86521C1.56901 7.48687 1.98234 8.27687 2.52234 8.60687L6.71484 11.1669C7.14484 11.4302 7.69984 11.3644 8.05568 11.0077L12.8565 6.20687C13.0982 5.95604 13.4982 5.95604 13.7398 6.20687C13.9815 6.44771 13.9815 6.84021 13.7398 7.09021L8.93068 11.891C8.57401 12.2477 8.50734 12.801 8.76984 13.2319L11.3315 17.4402C11.6315 17.9394 12.1482 18.2235 12.7148 18.2235C12.7815 18.2235 12.8565 18.2235 12.9232 18.2144C13.5732 18.1319 14.0898 17.6894 14.2815 17.0644L18.2565 3.75687C18.4315 3.19021 18.2732 2.57354 17.8565 2.14854Z" fill="white"/>
<path opacity="0.4" d="M7.87697 15.9519C8.12031 16.196 8.12031 16.5919 7.87697 16.836L6.73864 17.9735C6.61697 18.096 6.45697 18.1569 6.29697 18.1569C6.13697 18.1569 5.97697 18.096 5.85531 17.9735C5.61114 17.7294 5.61114 17.3344 5.85531 17.0902L6.99281 15.9519C7.23697 15.7085 7.63281 15.7085 7.87697 15.9519ZM7.22389 12.7952C7.46722 13.0394 7.46722 13.4352 7.22389 13.6794L6.08556 14.8169C5.96389 14.9394 5.80389 15.0002 5.64389 15.0002C5.48389 15.0002 5.32389 14.9394 5.20222 14.8169C4.95806 14.5727 4.95806 14.1777 5.20222 13.9335L6.33972 12.7952C6.58389 12.5519 6.97972 12.5519 7.22389 12.7952ZM4.08956 11.8015C4.33289 12.0457 4.33289 12.4415 4.08956 12.6857L2.95122 13.8232C2.82956 13.9457 2.66956 14.0065 2.50956 14.0065C2.34956 14.0065 2.18956 13.9457 2.06789 13.8232C1.82372 13.579 1.82372 13.184 2.06789 12.9399L3.20539 11.8015C3.44956 11.5582 3.84539 11.5582 4.08956 11.8015Z" fill="white"/>
</svg>
