<svg width="20" height="20" viewBox="0 0 20 20" fill="none" xmlns="http://www.w3.org/2000/svg">
<path d="M17.0565 1.66662H2.93984C2.78116 1.66442 2.62359 1.69349 2.47615 1.75219C2.3287 1.81089 2.19426 1.89805 2.08051 2.00871C1.96675 2.11937 1.87591 2.25136 1.81317 2.39713C1.75043 2.5429 1.71702 2.6996 1.71484 2.85829V17.1416C1.71702 17.3003 1.75043 17.457 1.81317 17.6028C1.87591 17.7486 1.96675 17.8805 2.08051 17.9912C2.19426 18.1019 2.3287 18.189 2.47615 18.2477C2.62359 18.3064 2.78116 18.3355 2.93984 18.3333H17.0565C17.2152 18.3355 17.3728 18.3064 17.5202 18.2477C17.6677 18.189 17.8021 18.1019 17.9158 17.9912C18.0296 17.8805 18.1204 17.7486 18.1832 17.6028C18.2459 17.457 18.2793 17.3003 18.2815 17.1416V2.85829C18.2793 2.6996 18.2459 2.5429 18.1832 2.39713C18.1204 2.25136 18.0296 2.11937 17.9158 2.00871C17.8021 1.89805 17.6677 1.81089 17.5202 1.75219C17.3728 1.69349 17.2152 1.66442 17.0565 1.66662ZM6.73984 15.6166H4.23984V8.11662H6.73984V15.6166ZM5.48984 7.06662C5.14506 7.06662 4.8144 6.92966 4.5706 6.68586C4.32681 6.44206 4.18984 6.1114 4.18984 5.76662C4.18984 5.42184 4.32681 5.09118 4.5706 4.84738C4.8144 4.60358 5.14506 4.46662 5.48984 4.46662C5.67292 4.44586 5.85832 4.464 6.03391 4.51986C6.20949 4.57571 6.37129 4.66803 6.50872 4.79076C6.64616 4.91348 6.75611 5.06385 6.8314 5.23202C6.90669 5.40019 6.94561 5.58237 6.94561 5.76662C6.94561 5.95087 6.90669 6.13305 6.8314 6.30122C6.75611 6.46939 6.64616 6.61976 6.50872 6.74249C6.37129 6.86521 6.20949 6.95753 6.03391 7.01338C5.85832 7.06924 5.67292 7.08738 5.48984 7.06662ZM15.7565 15.6166H13.2565V11.5916C13.2565 10.5833 12.8982 9.92495 11.9898 9.92495C11.7087 9.92701 11.435 10.0152 11.2055 10.1776C10.9761 10.34 10.8019 10.5688 10.7065 10.8333C10.6413 11.0292 10.613 11.2354 10.6232 11.4416V15.6083H8.12318C8.12318 15.6083 8.12318 8.79162 8.12318 8.10829H10.6232V9.16662C10.8503 8.77254 11.1806 8.44789 11.5785 8.22762C11.9765 8.00736 12.427 7.89983 12.8815 7.91662C14.5482 7.91662 15.7565 8.99162 15.7565 11.3V15.6166Z" fill="white"/>
</svg>
