<svg width="20" height="20" viewBox="0 0 20 20" fill="none" xmlns="http://www.w3.org/2000/svg">
<path d="M18.3346 4.83326C17.7083 5.10501 17.0458 5.28465 16.368 5.3666C17.0831 4.93936 17.619 4.26725 17.8763 3.47493C17.2043 3.87498 16.4686 4.15684 15.7013 4.30826C15.1884 3.75207 14.5054 3.38184 13.7595 3.25564C13.0135 3.12944 12.2468 3.2544 11.5795 3.61092C10.9122 3.96745 10.3821 4.53537 10.0723 5.22563C9.76259 5.91588 9.69071 6.68942 9.86797 7.42493C8.50916 7.3562 7.18 7.00239 5.96685 6.38648C4.75369 5.77057 3.68367 4.90634 2.8263 3.84993C2.52558 4.37507 2.36757 4.96978 2.36797 5.57493C2.3669 6.13692 2.50482 6.69044 2.76943 7.18623C3.03405 7.68202 3.41715 8.10469 3.88464 8.4166C3.34128 8.40181 2.80954 8.25601 2.33464 7.9916V8.03326C2.33871 8.82067 2.61463 9.58251 3.11573 10.1899C3.61683 10.7973 4.31235 11.213 5.08464 11.3666C4.78735 11.4571 4.4787 11.5048 4.16797 11.5083C3.95288 11.5058 3.73832 11.4862 3.5263 11.4499C3.74623 12.1273 4.17182 12.7192 4.74386 13.1434C5.31591 13.5676 6.00595 13.8029 6.71797 13.8166C5.51564 14.7627 4.0312 15.279 2.5013 15.2833C2.22275 15.2842 1.94442 15.2675 1.66797 15.2333C3.22999 16.2418 5.05031 16.7772 6.90964 16.7749C8.19271 16.7883 9.46558 16.5458 10.6539 16.0617C11.8422 15.5775 12.9222 14.8615 13.8306 13.9553C14.7391 13.0492 15.4579 11.9711 15.9451 10.784C16.4323 9.59695 16.678 8.3247 16.668 7.0416C16.668 6.89993 16.668 6.74993 16.668 6.59993C17.3219 6.11227 17.8859 5.51445 18.3346 4.83326Z" fill="white"/>
</svg>
