<svg width="20" height="20" viewBox="0 0 20 20" fill="none" xmlns="http://www.w3.org/2000/svg">
<path d="M19.1649 8.09165C19.2061 6.89886 18.9453 5.715 18.4066 4.64999C18.0411 4.21299 17.5338 3.91808 16.9732 3.81665C14.6545 3.60626 12.3262 3.52002 9.99823 3.55832C7.67877 3.51829 5.35882 3.60174 3.04823 3.80832C2.59142 3.89142 2.16866 4.10569 1.83157 4.42499C1.08157 5.11665 0.998232 6.29999 0.914899 7.29999C0.793992 9.09796 0.793992 10.902 0.914899 12.7C0.939007 13.2628 1.02281 13.8215 1.1649 14.3667C1.26538 14.7875 1.46867 15.1769 1.75657 15.5C2.09596 15.8362 2.52855 16.0627 2.99823 16.15C4.79483 16.3718 6.60508 16.4637 8.4149 16.425C11.3316 16.4667 13.8899 16.425 16.9149 16.1917C17.3961 16.1097 17.8409 15.8829 18.1899 15.5417C18.4232 15.3082 18.5975 15.0226 18.6982 14.7083C18.9963 13.7938 19.1426 12.8367 19.1316 11.875C19.1649 11.4083 19.1649 8.59165 19.1649 8.09165ZM8.1149 12.375V7.21665L13.0482 9.80832C11.6649 10.575 9.8399 11.4417 8.1149 12.375Z" fill="white"/>
</svg>
